PathFileType	4	(X/Y/Z)	Patient4_TMGait_0pt3_02_right_14.trc.trc
DataRate	CameraRate	NumFrames	NumMarkers	Units	OrigDataRate	OrigDataStartFrame	OrigNumFrames
54.687500000000	54.687500000000	4	33	mm	54.687500000000	18	       141
Frame#	Time	Sacral			L.Shoulder			Chest			R.Shoulder			Neck			R.ASIS			L.ASIS			R.Thigh.Superior			R.Thigh.Lateral			R.Thigh.Inferior			R.Patella			L.Thigh.Superior			L.Thigh.Lateral			L.Thigh.Inferior			L.Patella			L.Shank.Superior			L.Shank.Lateral			L.Shank.Inferior			R.Shank.Superior			R.Shank.Lateral			R.Shank.Inferior			R.Heel			R.Midfoot.Superior			R.Midfoot.Lateral			R.Toe			L.Heel			L.Midfoot.Lateral			L.Midfoot.Superior			L.Toe			L.Elbow			L.Wrist			R.Elbow			R.Wrist			
		X1	Y1	Z1	X2	Y2	Z2	X3	Y3	Z3	X4	Y4	Z4	X5	Y5	Z5	X6	Y6	Z6	X7	Y7	Z7	X8	Y8	Z8	X9	Y9	Z9	X10	Y10	Z10	X11	Y11	Z11	X12	Y12	Z12	X13	Y13	Z13	X14	Y14	Z14	X15	Y15	Z15	X16	Y16	Z16	X17	Y17	Z17	X18	Y18	Z18	X19	Y19	Z19	X20	Y20	Z20	X21	Y21	Z21	X22	Y22	Z22	X23	Y23	Z23	X24	Y24	Z24	X25	Y25	Z25	X26	Y26	Z26	X27	Y27	Z27	X28	Y28	Z28	X29	Y29	Z29	X30	Y30	Z30	X31	Y31	Z31	X32	Y32	Z32	X33	Y33	Z33	

18	26.600857142857	674.955945235810	1010.795398640975	388.549594226974	924.371224856144	1435.887174037681	260.595397824307	978.628630484250	1355.999743897677	438.220099107946	858.734719553950	1430.976912678561	589.448975732104	877.133524549618	1493.363377985039	415.092024479208	880.625722602238	944.268497150756	545.916054645742	913.475708870766	958.186172980544	273.452492984111	956.697075921665	767.422130609752	523.336333437155	904.454505862522	650.452704048271	593.414889804064	993.840575401657	607.348187034415	517.059284982512	1022.900265816717	520.852779536472	540.138429340472	936.744747812390	736.105496951920	314.535937673827	844.445391938847	622.039775921266	254.230728976842	913.367995310325	543.253870314833	331.988251425864	907.275161287455	472.791480534447	343.874487291549	869.138396332566	403.706766691454	336.479692489221	769.346736810015	298.363486706450	285.194216246736	797.926965385719	186.146023920018	365.583134752411	993.612900772560	433.278227181990	552.271239696850	921.644675079116	330.572958420844	616.756168961262	980.580100955557	233.830220793410	571.416320610991	864.206144491822	57.008862148481	545.745046912591	1031.521363802850	115.394677004019	587.534019817744	947.977763599102	46.435874001476	619.706617556317	1153.285084109049	70.208050365691	614.281751495247	652.059470513155	39.892847813272	406.935579457025	728.158613175708	35.897165692679	328.877192608641	812.422744650608	94.952477635696	357.790493972651	940.403655511845	39.645406162879	332.272442976731	1039.889500888013	1138.359782555507	92.832768934274	1292.353800115253	1089.683554138410	128.262721073493	667.910966423114	1134.419936325948	663.861756056828	620.138001482872	879.515119397929	691.754413038494	
19	26.619142857143	674.658644819696	1010.047182429849	389.132478329211	925.481024582131	1434.791195812580	263.377881101886	978.234957666663	1354.946528914770	441.429990649806	857.331226155721	1430.468171139556	591.679798872349	877.013271760483	1492.390495502998	417.532984406774	878.856170234947	942.766606275020	548.171549576294	913.921038222866	957.215159288106	275.871872604601	953.371439603968	764.603778829073	527.011951691489	898.564665925809	647.717136814057	595.548981596027	988.716028602825	604.521103708788	520.177843004153	1017.050846849457	519.786625547521	541.970092866149	935.563171049919	734.894495055953	316.510894654599	842.819225187926	621.471553492737	255.246371140438	910.910631095383	542.072093231473	332.967388161095	904.098683134113	471.569745888650	344.653100948998	865.678441635613	402.730960296333	337.151948233929	765.289188608705	298.087345472945	285.518645105402	793.040896640283	185.661059377336	365.807421752073	990.987419189443	431.910726891547	553.654806828326	922.857775167530	326.382029359736	618.204334253355	985.097573942134	231.818114227809	572.242920439168	874.462093448944	51.868521754012	546.874830612591	1040.544826751564	114.332178920287	587.305892604106	959.269578025572	42.846587737654	619.871923719510	1163.986226493973	72.078466103124	612.364275522325	646.533926911282	39.832988725572	406.919562335871	722.611014664552	35.845790079479	328.850680339171	806.873079846759	94.873543973432	357.857079184177	934.849898359590	39.617254574943	332.315040476356	1044.241660664357	1140.099905911395	94.552394554938	1297.813686085989	1099.837474222856	131.285299824309	662.521973263955	1136.620269913386	662.464520081460	611.735258051039	882.016891455055	689.268312878588	
20	26.637428571429	674.586283575642	1008.868531090338	390.078193673632	926.256267204569	1433.457632590568	266.327711295005	977.728854819563	1353.760815540246	444.788878547995	855.850257400258	1429.725442408078	594.127517917165	876.656585254606	1491.186192645118	420.161724744332	877.410623718999	940.982719876615	550.639855525569	914.566977298713	956.055058894864	278.539734831947	950.615761040381	761.680455248887	530.720431608466	893.347262183671	644.732468836445	597.454292207295	984.411827504391	601.676495027399	523.144850775026	1011.833710920673	518.267510260065	543.649235617495	934.920728935638	733.556960112436	318.722932434777	841.849823121719	620.672043542101	256.565171053472	909.191825990699	540.735670294950	334.257499240731	901.699601126565	470.125558983493	345.743408171673	862.817408496876	401.503820790948	338.097265242675	761.661880912726	297.766471748931	286.027872742203	788.355655803515	185.060486166443	366.140925384969	988.298267245699	430.086848377632	554.881882243804	922.957708005832	322.513394921592	619.095383650335	987.702923937300	229.745440774980	572.674372016852	881.377338712577	48.038149994583	547.167460004558	1046.485579716441	113.181797433622	586.802773169507	966.735986675261	40.175032764171	619.591028161618	1170.883013114965	72.842217920740	610.799588656164	641.009984267143	39.781089582848	406.909676004541	717.067444009570	35.806495461457	328.828458838150	801.327014816698	94.801148577939	357.949422042066	929.291062974818	39.583711821837	332.357462978359	1048.096978593165	1141.394337654495	96.622521665574	1302.513842171125	1109.100738726031	134.358312731349	658.542847560051	1137.665982414594	661.643912321113	605.872440061903	883.126017176324	687.244954035148	
21	26.655714285714	674.768648539447	1007.381201307065	391.398367264984	926.731876204961	1432.002935029747	269.447091173335	977.138269486123	1352.553090113580	448.303193412923	854.300182845822	1428.846268175446	596.789733761390	876.077719982334	1489.857958914919	422.973903599152	876.338167985685	939.056157426401	553.323056450312	915.438047483392	954.806457672654	281.458197757793	948.530048229897	758.817525207958	534.350560572319	888.988186571635	641.669570736634	599.097586409808	981.052356341699	598.967380294773	525.876686494562	1007.430461337925	516.424248011424	545.129536455725	934.745767318391	732.125724644993	321.154474412898	841.379251497995	619.726385374623	258.169564420558	908.002229200164	539.291714624575	335.836054500097	899.855960488007	468.533262771040	347.120351647119	860.370557068689	400.116404194752	339.281744081928	758.323499731166	297.442986420793	286.703575417234	783.803044084118	184.394727244665	366.569645619494	985.724417934297	427.906992922153	555.918298303416	922.146229951147	318.980737896866	619.499128885854	988.587109002768	227.568226599432	572.714515247889	885.064435045046	45.293004176613	546.745977161565	1049.546395897779	111.871592719079	586.027144898192	970.569803864768	38.274390908463	618.966978396693	1174.287949343339	72.486716936186	609.575956883369	635.487484009715	39.742298627032	406.901948745670	711.529386252009	35.783053364208	328.811852110851	795.785547992111	94.744494876070	358.060416854832	923.729310697370	39.545578115729	332.397165040329	1051.434613198547	1142.311056981804	99.040526665576	1306.471787894816	1117.476651183524	137.474517162427	655.869095629816	1137.659871686460	661.462318859704	602.363628287221	882.969251189202	685.832251404541	
